<mxfile host="app.diagrams.net" modified="2023-08-15T21:39:04.151Z" agent="Mozilla/5.0 (X11; Linux x86_64; rv:109.0) Gecko/20100101 Firefox/115.0" etag="imW4dVVHNUprKtkxPg4k" version="21.6.8" type="device">
  <diagram name="Page-1" id="IG1_g57eI7rzG5r1iy3H">
    <mxGraphModel dx="1185" dy="675" grid="1" gridSize="10" guides="1" tooltips="1" connect="1" arrows="1" fold="1" page="1" pageScale="1" pageWidth="850" pageHeight="1100" math="0" shadow="0">
      <root>
        <mxCell id="0" />
        <mxCell id="1" parent="0" />
        <mxCell id="xuFF0FEhLe397D575bb_-2" value="free: {blpn0/0, blpn1/0, blpn2/0}" style="text;html=1;strokeColor=none;fillColor=none;align=center;verticalAlign=middle;whiteSpace=wrap;rounded=0;" parent="1" vertex="1">
          <mxGeometry x="425" y="230" width="170" height="30" as="geometry" />
        </mxCell>
        <mxCell id="xuFF0FEhLe397D575bb_-3" value="array_1 subscribed: {blpn3/0, blpn4/0} " style="text;html=1;align=center;verticalAlign=middle;resizable=0;points=[];autosize=1;strokeColor=none;fillColor=none;" parent="1" vertex="1">
          <mxGeometry x="105" y="440" width="230" height="30" as="geometry" />
        </mxCell>
        <mxCell id="xuFF0FEhLe397D575bb_-7" value="array_1: freesub_machine" style="swimlane;whiteSpace=wrap;html=1;fillColor=none;" parent="1" vertex="1">
          <mxGeometry x="110" y="310" width="220" height="90" as="geometry" />
        </mxCell>
        <mxCell id="xuFF0FEhLe397D575bb_-8" value="&lt;div style=&quot;line-height: 150%;&quot; align=&quot;left&quot;&gt;free: {blpn0/0, blpn1/0, blpn2/0}&lt;/div&gt;&lt;div style=&quot;line-height: 150%;&quot; align=&quot;left&quot;&gt;subscribed: {blpn3/0, blpn4/0}&lt;/div&gt;" style="text;html=1;align=left;verticalAlign=middle;resizable=0;points=[];autosize=1;strokeColor=none;fillColor=none;" parent="xuFF0FEhLe397D575bb_-7" vertex="1">
          <mxGeometry x="15" y="30" width="190" height="50" as="geometry" />
        </mxCell>
        <mxCell id="xuFF0FEhLe397D575bb_-4" value="array_1: recproc_machine" style="swimlane;whiteSpace=wrap;html=1;fillColor=none;" parent="xuFF0FEhLe397D575bb_-7" vertex="1">
          <mxGeometry y="198" width="220" height="112" as="geometry" />
        </mxCell>
        <mxCell id="xuFF0FEhLe397D575bb_-5" value="&lt;div style=&quot;line-height: 150%;&quot; align=&quot;left&quot;&gt;subscribed: {blpn3/0, blpn4/0}&lt;br&gt;&lt;/div&gt;&lt;div style=&quot;line-height: 120%;&quot; align=&quot;left&quot;&gt;ready: {blpn3/0, blpn4/0}&lt;/div&gt;&lt;div style=&quot;line-height: 150%;&quot; align=&quot;left&quot;&gt;recording: {}&lt;/div&gt;&lt;div style=&quot;line-height: 150%;&quot; align=&quot;left&quot;&gt;processing: {}&lt;/div&gt;&lt;div align=&quot;left&quot;&gt;&lt;br&gt;&lt;/div&gt;" style="text;html=1;align=left;verticalAlign=middle;resizable=0;points=[];autosize=1;strokeColor=none;fillColor=none;" parent="xuFF0FEhLe397D575bb_-4" vertex="1">
          <mxGeometry x="15" y="26" width="180" height="100" as="geometry" />
        </mxCell>
        <mxCell id="xuFF0FEhLe397D575bb_-43" value="" style="rounded=0;whiteSpace=wrap;html=1;fillColor=none;strokeWidth=2;strokeColor=#994C00;" parent="xuFF0FEhLe397D575bb_-4" vertex="1">
          <mxGeometry x="15" y="32" width="165" height="20" as="geometry" />
        </mxCell>
        <mxCell id="xuFF0FEhLe397D575bb_-35" value="" style="rounded=0;whiteSpace=wrap;html=1;fillColor=none;strokeWidth=2;strokeColor=#66CC00;" parent="xuFF0FEhLe397D575bb_-7" vertex="1">
          <mxGeometry x="10" y="35" width="180" height="20" as="geometry" />
        </mxCell>
        <mxCell id="xuFF0FEhLe397D575bb_-42" value="" style="rounded=0;whiteSpace=wrap;html=1;fillColor=none;strokeWidth=2;strokeColor=#994C00;" parent="xuFF0FEhLe397D575bb_-7" vertex="1">
          <mxGeometry x="10" y="55" width="180" height="20" as="geometry" />
        </mxCell>
        <mxCell id="xuFF0FEhLe397D575bb_-14" value="array_2 subscribed: {blpn5/0, blpn6/0} " style="text;html=1;align=center;verticalAlign=middle;resizable=0;points=[];autosize=1;strokeColor=none;fillColor=none;" parent="1" vertex="1">
          <mxGeometry x="405" y="440" width="230" height="30" as="geometry" />
        </mxCell>
        <mxCell id="xuFF0FEhLe397D575bb_-19" value="array_3 subscribed: {} " style="text;html=1;align=center;verticalAlign=middle;resizable=0;points=[];autosize=1;strokeColor=none;fillColor=none;" parent="1" vertex="1">
          <mxGeometry x="750" y="440" width="140" height="30" as="geometry" />
        </mxCell>
        <mxCell id="xuFF0FEhLe397D575bb_-24" value="array_2: freesub_machine" style="swimlane;whiteSpace=wrap;html=1;fillColor=none;" parent="1" vertex="1">
          <mxGeometry x="410" y="310" width="220" height="90" as="geometry" />
        </mxCell>
        <mxCell id="xuFF0FEhLe397D575bb_-25" value="&lt;p style=&quot;line-height: 150%;&quot;&gt;&lt;/p&gt;&lt;div style=&quot;line-height: 150%;&quot; align=&quot;left&quot;&gt;free: {blpn0/0, blpn1/0, blpn2/0}&lt;/div&gt;&lt;div style=&quot;line-height: 150%;&quot; align=&quot;left&quot;&gt;subscribed: {blpn5/0, blpn6/0}&lt;/div&gt;&lt;p&gt;&lt;/p&gt;" style="text;html=1;align=left;verticalAlign=middle;resizable=0;points=[];autosize=1;strokeColor=none;fillColor=none;" parent="xuFF0FEhLe397D575bb_-24" vertex="1">
          <mxGeometry x="15" y="20" width="190" height="70" as="geometry" />
        </mxCell>
        <mxCell id="xuFF0FEhLe397D575bb_-26" value="array_2: recproc_machine" style="swimlane;whiteSpace=wrap;html=1;fillColor=none;" parent="xuFF0FEhLe397D575bb_-24" vertex="1">
          <mxGeometry y="198" width="220" height="112" as="geometry" />
        </mxCell>
        <mxCell id="xuFF0FEhLe397D575bb_-27" value="&lt;div style=&quot;line-height: 150%;&quot; align=&quot;left&quot;&gt;subscribed: {blpn5/0, blpn6/0}&lt;br&gt;&lt;/div&gt;&lt;div style=&quot;line-height: 120%;&quot; align=&quot;left&quot;&gt;ready: {blpn5/0, blpn6/0}&lt;/div&gt;&lt;div style=&quot;line-height: 150%;&quot; align=&quot;left&quot;&gt;recording: {}&lt;/div&gt;&lt;div style=&quot;line-height: 150%;&quot; align=&quot;left&quot;&gt;processing: {}&lt;/div&gt;&lt;div align=&quot;left&quot;&gt;&lt;br&gt;&lt;/div&gt;" style="text;html=1;align=left;verticalAlign=middle;resizable=0;points=[];autosize=1;strokeColor=none;fillColor=none;" parent="xuFF0FEhLe397D575bb_-26" vertex="1">
          <mxGeometry x="15" y="26" width="180" height="100" as="geometry" />
        </mxCell>
        <mxCell id="xuFF0FEhLe397D575bb_-49" value="" style="rounded=0;whiteSpace=wrap;html=1;fillColor=none;strokeWidth=2;strokeColor=#007FFF;" parent="xuFF0FEhLe397D575bb_-26" vertex="1">
          <mxGeometry x="15" y="32" width="165" height="20" as="geometry" />
        </mxCell>
        <mxCell id="xuFF0FEhLe397D575bb_-36" value="" style="rounded=0;whiteSpace=wrap;html=1;fillColor=none;strokeWidth=2;strokeColor=#66CC00;" parent="xuFF0FEhLe397D575bb_-24" vertex="1">
          <mxGeometry x="10" y="35" width="180" height="20" as="geometry" />
        </mxCell>
        <mxCell id="xuFF0FEhLe397D575bb_-28" value="array_3: freesub_machine" style="swimlane;whiteSpace=wrap;html=1;fillColor=none;" parent="1" vertex="1">
          <mxGeometry x="710" y="310" width="220" height="90" as="geometry" />
        </mxCell>
        <mxCell id="xuFF0FEhLe397D575bb_-29" value="&lt;div style=&quot;line-height: 150%;&quot; align=&quot;left&quot;&gt;free: {blpn0/0, blpn1/0, blpn2/0}&lt;/div&gt;&lt;div style=&quot;line-height: 150%;&quot; align=&quot;left&quot;&gt;subscribed: {}&lt;/div&gt;" style="text;html=1;align=left;verticalAlign=middle;resizable=0;points=[];autosize=1;strokeColor=none;fillColor=none;" parent="xuFF0FEhLe397D575bb_-28" vertex="1">
          <mxGeometry x="15" y="30" width="190" height="50" as="geometry" />
        </mxCell>
        <mxCell id="xuFF0FEhLe397D575bb_-30" value="array_3: recproc_machine" style="swimlane;whiteSpace=wrap;html=1;fillColor=none;" parent="xuFF0FEhLe397D575bb_-28" vertex="1">
          <mxGeometry y="198" width="220" height="112" as="geometry" />
        </mxCell>
        <mxCell id="xuFF0FEhLe397D575bb_-31" value="&lt;div style=&quot;line-height: 150%;&quot; align=&quot;left&quot;&gt;subscribed: {}&lt;br&gt;&lt;/div&gt;&lt;div style=&quot;line-height: 120%;&quot; align=&quot;left&quot;&gt;ready: {}&lt;/div&gt;&lt;div style=&quot;line-height: 150%;&quot; align=&quot;left&quot;&gt;recording: {}&lt;/div&gt;&lt;div style=&quot;line-height: 150%;&quot; align=&quot;left&quot;&gt;processing: {}&lt;/div&gt;&lt;div align=&quot;left&quot;&gt;&lt;br&gt;&lt;/div&gt;" style="text;html=1;align=left;verticalAlign=middle;resizable=0;points=[];autosize=1;strokeColor=none;fillColor=none;" parent="xuFF0FEhLe397D575bb_-30" vertex="1">
          <mxGeometry x="15" y="26" width="100" height="100" as="geometry" />
        </mxCell>
        <mxCell id="xuFF0FEhLe397D575bb_-45" value="" style="rounded=0;whiteSpace=wrap;html=1;fillColor=none;strokeWidth=2;strokeColor=#CC99FF;" parent="xuFF0FEhLe397D575bb_-30" vertex="1">
          <mxGeometry x="10" y="32" width="90" height="20" as="geometry" />
        </mxCell>
        <mxCell id="xuFF0FEhLe397D575bb_-37" value="" style="rounded=0;whiteSpace=wrap;html=1;fillColor=none;strokeWidth=2;strokeColor=#66CC00;" parent="xuFF0FEhLe397D575bb_-28" vertex="1">
          <mxGeometry x="10" y="35" width="180" height="20" as="geometry" />
        </mxCell>
        <mxCell id="xuFF0FEhLe397D575bb_-47" value="" style="rounded=0;whiteSpace=wrap;html=1;fillColor=none;strokeWidth=2;strokeColor=#CC99FF;" parent="xuFF0FEhLe397D575bb_-28" vertex="1">
          <mxGeometry x="10" y="55" width="180" height="20" as="geometry" />
        </mxCell>
        <mxCell id="xuFF0FEhLe397D575bb_-38" style="edgeStyle=orthogonalEdgeStyle;rounded=0;orthogonalLoop=1;jettySize=auto;html=1;exitX=0.75;exitY=1;exitDx=0;exitDy=0;entryX=0;entryY=0.5;entryDx=0;entryDy=0;endArrow=none;endFill=0;strokeColor=#66CC00;strokeWidth=2;" parent="1" source="xuFF0FEhLe397D575bb_-32" target="xuFF0FEhLe397D575bb_-37" edge="1">
          <mxGeometry relative="1" as="geometry">
            <Array as="points">
              <mxPoint x="555" y="280" />
              <mxPoint x="670" y="280" />
              <mxPoint x="670" y="355" />
            </Array>
          </mxGeometry>
        </mxCell>
        <mxCell id="xuFF0FEhLe397D575bb_-40" style="edgeStyle=orthogonalEdgeStyle;rounded=0;orthogonalLoop=1;jettySize=auto;html=1;exitX=0.5;exitY=1;exitDx=0;exitDy=0;entryX=1;entryY=0.5;entryDx=0;entryDy=0;endArrow=none;endFill=0;strokeColor=#66CC00;strokeWidth=2;" parent="1" source="xuFF0FEhLe397D575bb_-32" target="xuFF0FEhLe397D575bb_-36" edge="1">
          <mxGeometry relative="1" as="geometry">
            <Array as="points">
              <mxPoint x="510" y="300" />
              <mxPoint x="650" y="300" />
              <mxPoint x="650" y="355" />
            </Array>
          </mxGeometry>
        </mxCell>
        <mxCell id="xuFF0FEhLe397D575bb_-32" value="" style="rounded=0;whiteSpace=wrap;html=1;fillColor=none;strokeWidth=2;strokeColor=#66CC00;" parent="1" vertex="1">
          <mxGeometry x="420" y="235" width="180" height="20" as="geometry" />
        </mxCell>
        <mxCell id="xuFF0FEhLe397D575bb_-39" style="edgeStyle=orthogonalEdgeStyle;rounded=0;orthogonalLoop=1;jettySize=auto;html=1;exitX=1;exitY=0.5;exitDx=0;exitDy=0;entryX=0.25;entryY=1;entryDx=0;entryDy=0;endArrow=none;endFill=0;strokeColor=#66CC00;strokeWidth=2;" parent="1" source="xuFF0FEhLe397D575bb_-35" target="xuFF0FEhLe397D575bb_-32" edge="1">
          <mxGeometry relative="1" as="geometry">
            <Array as="points">
              <mxPoint x="380" y="355" />
              <mxPoint x="380" y="280" />
              <mxPoint x="465" y="280" />
            </Array>
          </mxGeometry>
        </mxCell>
        <mxCell id="xuFF0FEhLe397D575bb_-41" value="" style="rounded=0;whiteSpace=wrap;html=1;fillColor=none;strokeWidth=2;strokeColor=#994C00;" parent="1" vertex="1">
          <mxGeometry x="110" y="445" width="220" height="20" as="geometry" />
        </mxCell>
        <mxCell id="xuFF0FEhLe397D575bb_-55" style="edgeStyle=orthogonalEdgeStyle;rounded=0;orthogonalLoop=1;jettySize=auto;html=1;exitX=1;exitY=0.5;exitDx=0;exitDy=0;entryX=1;entryY=0.5;entryDx=0;entryDy=0;strokeWidth=2;endArrow=none;endFill=0;strokeColor=#3399FF;" parent="1" source="xuFF0FEhLe397D575bb_-50" target="xuFF0FEhLe397D575bb_-51" edge="1">
          <mxGeometry relative="1" as="geometry" />
        </mxCell>
        <mxCell id="xuFF0FEhLe397D575bb_-50" value="" style="rounded=0;whiteSpace=wrap;html=1;fillColor=none;strokeWidth=2;strokeColor=#007FFF;" parent="1" vertex="1">
          <mxGeometry x="420" y="365" width="180" height="20" as="geometry" />
        </mxCell>
        <mxCell id="xuFF0FEhLe397D575bb_-51" value="" style="rounded=0;whiteSpace=wrap;html=1;fillColor=none;strokeWidth=2;strokeColor=#007FFF;" parent="1" vertex="1">
          <mxGeometry x="410" y="445" width="220" height="20" as="geometry" />
        </mxCell>
        <mxCell id="xuFF0FEhLe397D575bb_-52" value="" style="rounded=0;whiteSpace=wrap;html=1;fillColor=none;strokeWidth=2;strokeColor=#CC99FF;" parent="1" vertex="1">
          <mxGeometry x="750" y="445" width="140" height="20" as="geometry" />
        </mxCell>
        <mxCell id="xuFF0FEhLe397D575bb_-53" style="edgeStyle=orthogonalEdgeStyle;rounded=0;orthogonalLoop=1;jettySize=auto;html=1;exitX=1;exitY=0.5;exitDx=0;exitDy=0;entryX=1;entryY=0.5;entryDx=0;entryDy=0;strokeWidth=2;endArrow=none;endFill=0;strokeColor=#994C00;" parent="1" source="xuFF0FEhLe397D575bb_-42" target="xuFF0FEhLe397D575bb_-41" edge="1">
          <mxGeometry relative="1" as="geometry" />
        </mxCell>
        <mxCell id="xuFF0FEhLe397D575bb_-54" style="edgeStyle=orthogonalEdgeStyle;rounded=0;orthogonalLoop=1;jettySize=auto;html=1;exitX=1;exitY=0.5;exitDx=0;exitDy=0;entryX=1;entryY=0.5;entryDx=0;entryDy=0;strokeWidth=2;endArrow=none;endFill=0;strokeColor=#994C00;" parent="1" source="xuFF0FEhLe397D575bb_-43" target="xuFF0FEhLe397D575bb_-41" edge="1">
          <mxGeometry relative="1" as="geometry" />
        </mxCell>
        <mxCell id="xuFF0FEhLe397D575bb_-57" style="edgeStyle=orthogonalEdgeStyle;rounded=0;orthogonalLoop=1;jettySize=auto;html=1;exitX=1;exitY=0.5;exitDx=0;exitDy=0;entryX=1;entryY=0.5;entryDx=0;entryDy=0;strokeWidth=2;endArrow=none;endFill=0;strokeColor=#3399FF;" parent="1" source="xuFF0FEhLe397D575bb_-49" target="xuFF0FEhLe397D575bb_-51" edge="1">
          <mxGeometry relative="1" as="geometry" />
        </mxCell>
        <mxCell id="xuFF0FEhLe397D575bb_-58" style="edgeStyle=orthogonalEdgeStyle;rounded=0;orthogonalLoop=1;jettySize=auto;html=1;exitX=1;exitY=0.5;exitDx=0;exitDy=0;entryX=1;entryY=0.5;entryDx=0;entryDy=0;strokeWidth=2;endArrow=none;endFill=0;strokeColor=#CC99FF;" parent="1" source="xuFF0FEhLe397D575bb_-47" target="xuFF0FEhLe397D575bb_-52" edge="1">
          <mxGeometry relative="1" as="geometry">
            <Array as="points">
              <mxPoint x="950" y="375" />
              <mxPoint x="950" y="455" />
            </Array>
          </mxGeometry>
        </mxCell>
        <mxCell id="xuFF0FEhLe397D575bb_-60" style="edgeStyle=orthogonalEdgeStyle;rounded=0;orthogonalLoop=1;jettySize=auto;html=1;exitX=1;exitY=0.5;exitDx=0;exitDy=0;entryX=1;entryY=0.5;entryDx=0;entryDy=0;strokeWidth=2;endArrow=none;endFill=0;strokeColor=#CC99FF;" parent="1" source="xuFF0FEhLe397D575bb_-45" target="xuFF0FEhLe397D575bb_-52" edge="1">
          <mxGeometry relative="1" as="geometry">
            <Array as="points">
              <mxPoint x="950" y="550" />
              <mxPoint x="950" y="455" />
            </Array>
          </mxGeometry>
        </mxCell>
      </root>
    </mxGraphModel>
  </diagram>
</mxfile>
